<?xml version="1.0" encoding="UTF-8"?>
<svg id="Layer_2" data-name="Layer 2" xmlns="http://www.w3.org/2000/svg" version="1.1" viewBox="0 0 335.3 335.3">
  <defs>
    <style>
      .cls-1 {
        fill: #000;
      }

      .cls-1, .cls-2 {
        stroke-width: 0px;
      }

      .cls-2 {
        fill: #fff;
      }
    </style>
  </defs>
  <path class="cls-2" d="M0,231.5v64.5C0,296.5,0,297,0,297.5c1.5,21.1,19.2,37.9,40.7,37.9h253.7c22.5,0,40.8-18.3,40.8-40.8V40.7C335.3,18.2,317-.1,294.5-.1H40.8C18.3-.1,0,18.2,0,40.7v190.8Z"/>
  <g id="Layer_1-2" data-name="Layer 1-2">
    <g>
      <path class="cls-1" d="M71.9,271.7h-33.9c-4.3,0-7.8,3.5-7.8,7.8v19.3c0,2.4,1,4.7,2.8,6.2,2.8,2.3,6.7,2.2,9.5.1l12.5-9.6h0l12.1,9.5c1.4,1.1,3,1.6,4.7,1.6s2.7-.3,3.8-1c2.4-1.4,3.8-4.1,3.8-6.9v-19.2c0-4.3-3.5-7.8-7.8-7.8h.2Z"/>
      <path class="cls-1" d="M177.1,219.8c1.2.7,2.5,1,3.8,1s2.6-.3,3.8-1l66.4-38.3c2.4-1.4,3.8-3.9,3.8-6.6v-76.7c0-2.7-1.5-5.2-3.8-6.6l-66.4-38.3c-2.4-1.4-5.3-1.4-7.6,0l-66.4,38.3c-2.4,1.4-3.8,3.9-3.8,6.6v76.7c0,2.7,1.4,5.2,3.8,6.6l66.4,38.3h0ZM180.9,192.4l-17.6-30.4h35.1l-17.6,30.4h.1ZM165.7,145.1l15.6-27.1,15.6,27.1h-31.3,0ZM239.7,170.4l-39.7,22.9,39.7-68.8v45.9h0ZM212.4,138l-17-29.5h34.1l-17,29.5h-.1ZM180.9,68.6l39.7,22.9h-79.4l39.7-22.9h0ZM167.3,108.5l-17.4,30.2-17.4-30.2h34.8,0ZM122.1,124.4l39.8,69-39.8-23s0-46,0-46Z"/>
      <path class="cls-1" d="M55.2,163.5h7.4v-79.3h-7.4c-28.1,0-44.7,13-55.2,36v76.2c6.8-22.2,33.5-32.9,55.2-32.9h0Z"/>
      <path class="cls-1" d="M294.5,0H40.8C18.3,0,0,18.3,0,40.8v53.1c7.2-18.3,33.5-29.8,55.2-29.8h7.4V20h211.9c-.1.6-.2,1.2-.2,1.8,0,22.5,18.3,40.8,40.8,40.8h.1v137.9h-.1c-22.5,0-40.8,18.3-40.8,40.8s0,.4,0,.7H62.6v-58.5h-7.4C27.1,183.5,3.7,204.4,0,231.6v64.5C0,296.6,0,297.1,0,297.6c1.5,21.1,19.2,37.9,40.7,37.9h253.7c22.5,0,40.8-18.3,40.8-40.8V40.8c0-22.5-18.3-40.8-40.8-40.8ZM315.3,294.5c0,11.5-9.3,20.8-20.8,20.8H40.8c-11.5,0-20.8-9.3-20.8-20.8v-11.7c0-11.5,9.3-20.8,20.8-20.8h253.7c7.6,0,14.7-2.1,20.8-5.7v38.2h0ZM315.3,221.2c0,11.5-9.3,20.8-20.8,20.8h-.1v-.7c0-11.5,9.3-20.8,20.8-20.8h.1v.7h0ZM315.3,42.7h-.1c-11.5,0-20.8-9.3-20.8-20.8s0-1.2-.2-1.8h.3c11.5,0,20.8,9.3,20.8,20.8v1.8h0Z"/>
    </g>
  </g>
</svg>