<?xml version="1.0" encoding="UTF-8"?>
<svg id="Layer_1" data-name="Layer 1" xmlns="http://www.w3.org/2000/svg" viewBox="0 0 60 60">
  <defs>
    <style>
      .cls-1 {
        fill: #106ddd;
        stroke-width: 0px;
      }
    </style>
  </defs>
  <path class="cls-1" d="m39.38,2.05c1.62.33,4.02,1.41,5.33,2.4l5.87,4.44c1.32,1,3.01,3.01,3.76,4.48l3.36,6.54c.75,1.47,1.4,4.02,1.45,5.67l.19,7.35c.04,1.65-.48,4.23-1.16,5.73l-3.02,6.71c-.68,1.5-2.27,3.6-3.53,4.67l-5.63,4.73c-1.26,1.06-3.6,2.26-5.2,2.67l-7.13,1.82c-1.6.41-4.23.48-5.85.15l-7.21-1.45c-1.62-.33-4.02-1.41-5.33-2.4l-5.87-4.44c-1.32-1-3.01-3.01-3.76-4.48l-3.36-6.54c-.75-1.47-1.4-4.02-1.45-5.67l-.19-7.35c-.04-1.65.48-4.23,1.16-5.73l3.02-6.71c.68-1.5,2.27-3.6,3.53-4.67l5.63-4.73c1.26-1.06,3.6-2.26,5.2-2.67l7.13-1.82c1.6-.41,4.23-.48,5.85-.15l7.21,1.45Z"/>
</svg>