<?xml version="1.0" encoding="UTF-8"?>
<svg id="Layer_1" data-name="Layer 1" xmlns="http://www.w3.org/2000/svg" viewBox="0 0 60 60">
  <defs>
    <style>
      .cls-1 {
        fill: #9527fc;
        stroke-width: 0px;
      }
    </style>
  </defs>
  <path class="cls-1" d="m59.07,27.13c.51,1.57.51,4.14,0,5.71l-3.87,11.93c-.51,1.57-2.02,3.65-3.35,4.62l-10.14,7.38c-1.33.97-3.78,1.77-5.43,1.77h-12.54c-1.65,0-4.09-.79-5.43-1.75l-10.15-7.37c-1.34-.97-2.85-3.05-3.36-4.61l-3.88-11.93c-.51-1.57-.51-4.14,0-5.71l3.87-11.93c.51-1.57,2.02-3.65,3.35-4.62l10.14-7.38c1.33-.97,3.78-1.77,5.43-1.77h12.54c1.65,0,4.09.79,5.43,1.75l10.15,7.37c1.34.97,2.85,3.05,3.36,4.61l3.88,11.93Z"/>
</svg>