<?xml version="1.0" encoding="utf-8"?>
<!-- Generator: Adobe Illustrator 28.0.0, SVG Export Plug-In . SVG Version: 6.00 Build 0)  -->
<svg version="1.1" id="Layer_1" xmlns="http://www.w3.org/2000/svg" xmlns:xlink="http://www.w3.org/1999/xlink" x="0px" y="0px"
	 viewBox="0 0 41 41" style="enable-background:new 0 0 41 41;" xml:space="preserve">
<style type="text/css">
	.st0{fill:#33A33C;}
	.st1{fill:#37B041;}
	.st2{fill:#3DC648;}
	.st3{fill:#2C8C36;}
	.st4{fill:#46C151;}
	.st5{fill:#48C654;}
</style>
<polygon class="st0" points="20.5,0 20.5,10.2 38.2,10.2 "/>
<polygon class="st1" points="38.2,10.2 20.5,10.2 32,30.8 "/>
<polygon class="st2" points="32,30.8 20.5,10.2 9,30.8 "/>
<polygon class="st1" points="32,30.8 20.5,41 9,30.8 "/>
<polygon class="st0" points="2.8,30.8 20.5,41 9,30.8 "/>
<polygon class="st3" points="32,30.8 20.5,41 38.2,30.8 "/>
<polygon class="st1" points="2.8,30.8 2.8,10.2 9,30.8 "/>
<polygon class="st0" points="32,30.8 38.2,10.2 38.2,30.8 "/>
<polygon class="st4" points="2.8,10.2 20.5,10.2 9,30.8 "/>
<polygon class="st5" points="20.5,0 20.5,10.2 2.8,10.2 "/>
</svg>
