<?xml version="1.0" encoding="UTF-8"?>
<svg id="Layer_1" data-name="Layer 1" xmlns="http://www.w3.org/2000/svg" viewBox="0 0 41 41">
  <defs>
    <style>
      .cls-1 {
        fill: #ef3a4d;
        stroke-width: 0px;
      }
    </style>
  </defs>
  <path class="cls-1" d="m37.77,11.32h-16.4c2.68,4.6,8.71,14.59,10.58,17.68l5.82-17.68Z"/>
  <path class="cls-1" d="m2.75,12.97v15.73c0,.32.07.66.19,1h5.53L2.75,12.97Z"/>
  <path class="cls-1" d="m19.63,11.32H3.24l6.04,17.68c1.82-3.1,7.69-13.09,10.35-17.68Z"/>
  <polygon class="cls-1" points="10.42 30.7 20.5 40.31 30.8 30.7 10.42 30.7"/>
  <path class="cls-1" d="m20.5,11.82c-2.73,4.7-8.8,15.04-10.47,17.88h21.17c-1.72-2.86-7.95-13.18-10.7-17.88Z"/>
  <path class="cls-1" d="m32.27,30.7l-9.84,9.19,14.06-8.12c.41-.24.79-.62,1.09-1.07h-5.3Z"/>
  <path class="cls-1" d="m38.25,28.7v-15.66l-5.49,16.66h5.3c.12-.34.19-.68.19-1Z"/>
  <path class="cls-1" d="m8.97,30.7H3.43c.3.45.68.83,1.09,1.07l14.14,8.16-9.69-9.23Z"/>
  <path class="cls-1" d="m20,10.32V.64s0,0,0,0c-.47.05-.92.18-1.28.39L4.52,9.22c-.42.24-.8.64-1.1,1.1h16.58Z"/>
  <path class="cls-1" d="m21,.64v9.68h16.58c-.3-.46-.69-.86-1.1-1.1L22.28,1.03c-.36-.21-.81-.34-1.28-.39,0,0,0,0,0,0Z"/>
</svg>