<?xml version="1.0" encoding="utf-8"?>
<!-- Generator: Adobe Illustrator 28.0.0, SVG Export Plug-In . SVG Version: 6.00 Build 0)  -->
<svg version="1.1" id="Layer_1" xmlns="http://www.w3.org/2000/svg" xmlns:xlink="http://www.w3.org/1999/xlink" x="0px" y="0px"
	 viewBox="0 0 35 35" style="enable-background:new 0 0 35 35;" xml:space="preserve">
<style type="text/css">
	.st0{fill:#FFFFFF;}
</style>
<polygon class="st0" points="13,14.3 13,9.6 15.4,9.6 10.6,4.9 6,9.6 8.3,9.6 8.3,14.3 "/>
<rect x="8.3" y="9.6" class="st0" width="4.7" height="18.8"/>
<polygon class="st0" points="13,14.3 13,9.6 15.4,9.6 10.6,4.9 6,9.6 8.3,9.6 8.3,14.3 "/>
<rect x="8.3" y="9.6" class="st0" width="4.7" height="18.8"/>
<polygon class="st0" points="24,20.7 24,25.4 21.6,25.4 26.4,30.1 31,25.4 28.7,25.4 28.7,20.7 "/>
<rect x="24" y="6.6" class="st0" width="4.7" height="18.8"/>
<polygon class="st0" points="24,20.7 24,25.4 21.6,25.4 26.4,30.1 31,25.4 28.7,25.4 28.7,20.7 "/>
<rect x="24" y="6.6" class="st0" width="4.7" height="18.8"/>
</svg>
